<?xml version="1.0" encoding="utf-8"?>
<!-- Generator: Adobe Illustrator 16.0.0, SVG Export Plug-In . SVG Version: 6.00 Build 0)  -->
<!DOCTYPE svg PUBLIC "-//W3C//DTD SVG 1.1//EN" "http://www.w3.org/Graphics/SVG/1.1/DTD/svg11.dtd">
<svg version="1.1" id="Layer_1" xmlns="http://www.w3.org/2000/svg" xmlns:xlink="http://www.w3.org/1999/xlink" x="0px" y="0px"
	 width="100px" height="100px" viewBox="0 0 100 100" enable-background="new 0 0 100 100" xml:space="preserve">
<ellipse cx="83.988" cy="27.647" rx="1.012" ry="3.674"/>
<polygon points="87.545,33.503 88.004,31.948 90.963,32.179 91.681,31.012 86.926,30.663 86.127,34.123 89.015,35.349 
	89.731,34.185 "/>
<g>
	<path d="M67.605,41.639l-0.858,1.967l-2.031,4.652l-4.06,9.303l-8.12,18.605l-7.558,17.407v-23.88v-0.479l-0.415,0.241
		l-4.586,2.669V55.018v-0.43l-0.39,0.178l-2.859,1.301V38.49v-0.436l-0.395,0.188l-3.562,1.697l0,0l-0.904,0.431l-0.147,0.07v-7.457
		l0.001-0.42l-0.384,0.167l-2.781,1.165l0.025-0.498l0.023-0.463l0.048-0.46l0.096-0.922l0.142-0.916l0.071-0.458
		c0.026-0.152,0.061-0.303,0.091-0.455l0.187-0.907c0.066-0.302,0.151-0.599,0.226-0.899c0.08-0.298,0.146-0.601,0.243-0.894
		c0.183-0.59,0.354-1.183,0.575-1.761c0.107-0.289,0.204-0.583,0.319-0.869l0.354-0.855c0.06-0.142,0.116-0.286,0.179-0.427
		l0.198-0.418l0.394-0.837l0.433-0.816c0.145-0.272,0.285-0.546,0.449-0.807l0.473-0.793c0.155-0.266,0.338-0.514,0.505-0.772
		l0.256-0.383c0.084-0.129,0.171-0.255,0.266-0.376l0.553-0.737c0.178-0.25,0.384-0.478,0.581-0.713
		c0.2-0.232,0.391-0.474,0.598-0.697l0.627-0.657c0.107-0.108,0.202-0.222,0.32-0.326l0.344-0.318
		c0.883-0.855,1.857-1.583,2.891-2.226c1.035-0.637,2.125-1.188,3.267-1.607c1.14-0.422,2.319-0.738,3.516-0.949
		c1.197-0.217,2.415-0.308,3.63-0.301c1.214,0.008,2.429,0.113,3.626,0.322c1.195,0.217,2.373,0.531,3.515,0.94
		c0.282,0.109,0.573,0.199,0.851,0.323l0.834,0.359l0.815,0.4c0.271,0.135,0.53,0.292,0.796,0.436
		c1.048,0.604,2.041,1.298,2.963,2.075c0.921,0.779,1.752,1.656,2.5,2.596c0.389,0.47,0.704,0.949,1.04,1.446l0.483,0.802
		l0.031,0.05l0.016,0.024l0,0l0.051,0.095l0.109,0.207l0.213,0.4c0.732,1.461,1.297,3,1.658,4.587
		c0.36,1.587,0.533,3.216,0.521,4.85c-0.004,1.635-0.188,3.272-0.5,4.892c-0.313,1.619-0.759,3.226-1.289,4.788L67.605,41.639
		l1.381,0.39l1.06-2.559c0.581-1.634,1.065-3.287,1.418-4.986c0.353-1.697,0.556-3.435,0.567-5.184
		c0.01-1.749-0.178-3.506-0.596-5.212c-0.412-1.706-1.041-3.357-1.847-4.91l-0.008-0.015l-0.228-0.409l-0.115-0.205l-0.055-0.103
		l-0.035-0.058l-0.017-0.025l-0.03-0.049l-0.496-0.794c-0.367-0.534-0.752-1.09-1.166-1.579c-0.82-1.001-1.731-1.93-2.729-2.75
		c-1-0.819-2.07-1.544-3.197-2.17c-0.283-0.15-0.563-0.312-0.854-0.451l-0.873-0.412L58.895,9.79
		c-0.297-0.127-0.604-0.22-0.906-0.331c-1.215-0.415-2.463-0.729-3.729-0.938c-1.268-0.201-2.55-0.294-3.832-0.283
		c-1.281,0.011-2.562,0.127-3.821,0.373c-1.254,0.238-2.491,0.59-3.687,1.053c-1.197,0.459-2.338,1.057-3.418,1.745
		c-1.076,0.689-2.101,1.483-3,2.379c-0.459,0.411-0.887,0.913-1.326,1.377c-0.215,0.238-0.407,0.489-0.611,0.733
		c-0.2,0.248-0.409,0.486-0.59,0.748l-0.56,0.769c-0.096,0.127-0.184,0.258-0.269,0.393l-0.259,0.399
		c-0.168,0.268-0.353,0.526-0.508,0.802l-0.474,0.823c-0.164,0.271-0.303,0.556-0.447,0.838l-0.43,0.845l-0.389,0.865l-0.195,0.432
		c-0.062,0.146-0.117,0.294-0.175,0.44l-0.348,0.882c-0.113,0.295-0.207,0.596-0.311,0.895c-0.215,0.594-0.381,1.204-0.557,1.809
		c-0.094,0.302-0.157,0.612-0.233,0.917c-0.07,0.308-0.151,0.612-0.214,0.921l-0.175,0.931c-0.028,0.155-0.062,0.309-0.085,0.465
		l-0.065,0.469l-0.128,0.937l-0.082,0.943l-0.041,0.472l-0.016,0.473l-0.032,0.946l-0.015,0.429l0.396-0.17l2.803-1.174v7.479v0.437
		l0.394-0.188l0.542-0.258l-0.024-0.319c0.009-0.015-0.324-0.082-0.292-0.122l0.316,0.441v0.001l4.071-1.939v17.569v0.428
		l0.39-0.178l2.859-1.303v17.158v0.479l0.415-0.24l4.586-2.669V94.9v1.299l0.528-1.188l0,0l8.41-18.478l8.375-18.492l4.188-9.247
		l2.094-4.623l0.969-2.142L67.605,41.639z"/>
</g>
<circle cx="41.253" cy="27.973" r="4"/>
<circle cx="57.165" cy="27.973" r="4"/>
</svg>
